<svg width="28" height="28" viewBox="0 0 28 28" fill="none" xmlns="http://www.w3.org/2000/svg">
<path d="M13.0726 0.716814C13.3745 -0.167678 14.6255 -0.167676 14.9274 0.716816L15.9298 3.65337C16.155 4.31295 16.9773 4.53329 17.5021 4.07465L19.8384 2.03272C20.5422 1.4177 21.6255 2.04317 21.4447 2.96012L20.8446 6.00445C20.7098 6.68825 21.3118 7.29023 21.9955 7.15543L25.0399 6.55526C25.9568 6.37449 26.5823 7.45784 25.9673 8.16156L23.9253 10.4979C23.4667 11.0227 23.687 11.845 24.3466 12.0702L27.2832 13.0726C28.1677 13.3745 28.1677 14.6255 27.2832 14.9274L24.3466 15.9298C23.687 16.155 23.4667 16.9773 23.9254 17.5021L25.9673 19.8384C26.5823 20.5422 25.9568 21.6255 25.0399 21.4447L21.9955 20.8446C21.3118 20.7098 20.7098 21.3118 20.8446 21.9955L21.4447 25.0399C21.6255 25.9568 20.5422 26.5823 19.8384 25.9673L17.5021 23.9253C16.9773 23.4667 16.155 23.687 15.9298 24.3466L14.9274 27.2832C14.6255 28.1677 13.3745 28.1677 13.0726 27.2832L12.0702 24.3466C11.845 23.687 11.0227 23.4667 10.4979 23.9254L8.16156 25.9673C7.45784 26.5823 6.37449 25.9568 6.55526 25.0399L7.15543 21.9955C7.29023 21.3118 6.68825 20.7098 6.00445 20.8446L2.96012 21.4447C2.04317 21.6255 1.4177 20.5422 2.03273 19.8384L4.07465 17.5021C4.53329 16.9773 4.31295 16.155 3.65336 15.9298L0.716814 14.9274C-0.167678 14.6255 -0.167676 13.3745 0.716816 13.0726L3.65337 12.0702C4.31295 11.845 4.53329 11.0227 4.07465 10.4979L2.03272 8.16156C1.4177 7.45783 2.04317 6.37449 2.96012 6.55526L6.00445 7.15543C6.68825 7.29023 7.29023 6.68825 7.15543 6.00445L6.55526 2.96012C6.37449 2.04317 7.45784 1.4177 8.16156 2.03273L10.4979 4.07465C11.0227 4.53329 11.845 4.31295 12.0702 3.65336L13.0726 0.716814Z" fill="#FF5C00"/>
</svg>
